<?xml version="1.0" encoding="UTF-8"?>
<svg width="22px" height="23px" viewBox="0 0 22 23" version="1.1" xmlns="http://www.w3.org/2000/svg" xmlns:xlink="http://www.w3.org/1999/xlink">
    <!-- Generator: Sketch 47.1 (45422) - http://www.bohemiancoding.com/sketch -->
    <title>uEA05-calendar</title>
    <desc>Created with Sketch.</desc>
    <defs></defs>
    <g id="Page-1" stroke="none" stroke-width="1" fill="none" fill-rule="evenodd">
        <g id="Group" transform="translate(0.000000, -31.000000)" fill-rule="nonzero" fill="#000000">
            <g id="uEA05-calendar" transform="translate(0.000000, 31.000000)">
                <path d="M17.5303414,3.57624495 L17.5303414,5.05754434 L16.2303414,5.05754434 L16.2303414,3.57624495 L11.7624068,3.57624495 L11.7624068,5.03679815 L10.4624068,5.03679815 L10.4624068,3.57624495 L6.03253071,3.57624495 L6.03253071,5.04392297 L4.73253071,5.04392297 L4.73253071,3.57624495 L2.86837797,3.57624495 C2.48177865,3.57624495 2.16837797,3.88964563 2.16837797,4.27624495 L2.16837797,8.14689591 L20.2652505,8.14689591 L20.2652505,4.27624495 C20.2652505,3.88964563 19.9518498,3.57624495 19.5652505,3.57624495 L17.5303414,3.57624495 Z M16.2303414,2.27624495 L16.2303414,0.49525578 L17.5303414,0.49525578 L17.5303414,2.27624495 L19.5652505,2.27624495 C20.66982,2.27624495 21.5652505,3.17167545 21.5652505,4.27624495 L21.5652505,20.2983335 C21.5652505,21.402903 20.66982,22.2983335 19.5652505,22.2983335 L2.86837797,22.2983335 C1.76380847,22.2983335 0.868377974,21.402903 0.868377974,20.2983335 L0.868377974,4.27624495 C0.868377974,3.17167545 1.76380847,2.27624495 2.86837797,2.27624495 L4.73253071,2.27624495 L4.73253071,0.481634409 L6.03253071,0.481634409 L6.03253071,2.27624495 L10.4624068,2.27624495 L10.4624068,0.474509581 L11.7624068,0.474509581 L11.7624068,2.27624495 L16.2303414,2.27624495 Z M20.2652505,9.44689591 L2.16837797,9.44689591 L2.16837797,20.2983335 C2.16837797,20.6849328 2.48177865,20.9983335 2.86837797,20.9983335 L19.5652505,20.9983335 C19.9518498,20.9983335 20.2652505,20.6849328 20.2652505,20.2983335 L20.2652505,9.44689591 Z" id="Combined-Shape"></path>
            </g>
        </g>
    </g>
</svg>