<?xml version="1.0" encoding="UTF-8"?>
<svg width="34px" height="26px" viewBox="0 0 34 26" version="1.1" xmlns="http://www.w3.org/2000/svg" xmlns:xlink="http://www.w3.org/1999/xlink">
    <!-- Generator: Sketch 47.1 (45422) - http://www.bohemiancoding.com/sketch -->
    <title>release</title>
    <desc>Created with Sketch.</desc>
    <defs></defs>
    <g id="Page-1" stroke="none" stroke-width="1" fill="none" fill-rule="evenodd">
        <path d="M4.1,19 L6.7,19 C6.5,19.8 6.5,20.6 6.7,21.4 C7.3,23.7 9.4,25.3 11.7,25.3 C12.1,25.3 12.6,25.2 13,25.1 C14.3,24.8 15.5,23.9 16.2,22.7 C16.8,21.6 17,20.4 16.8,19.2 L25,19.4 C25.2,19.4 25.3,19.5 25.5,19.5 C25.7,19.5 25.8,19.5 26,19.4 C28.5,18.8 28.6,13.6 27.4,8.9 C26.3,4.8 24.1,0.3 21.6,0.3 C21.4,0.3 21.3,0.3 21.1,0.4 C20.8,0.5 20.6,0.6 20.3,0.8 L2.1,11.2 C0.5,12.1 -0.3,14.1 0.1,15.9 C0.6,17.7 2.2,19 4.1,19 Z M15.2,19.2 C15.4,20.1 15.3,21.1 14.8,22 C14.3,22.8 13.5,23.4 12.6,23.7 C10.6,24.2 8.7,23 8.1,21.1 C7.9,20.4 8,19.8 8.1,19.1 L15.2,19.2 C15.2,19.2 15.2,19.2 15.2,19.2 Z M25.7,9.3 C26.9,14.1 26.4,17.6 25.5,18 L25.1,18 C24,17.6 22.2,15 21,10.6 C20.4,8.3 20.2,6.1 20.3,4.4 C20.4,3.2 20.7,2.4 21,2.1 L21.3,1.9 C21.3,1.9 21.3,1.9 21.3,1.9 C22.4,1.8 24.5,4.4 25.7,9.3 Z M2.8,12.5 L19,3.2 C18.9,3.5 18.9,3.8 18.9,4.2 C18.7,6.1 19,8.5 19.6,10.9 C20.3,13.5 21.4,16.2 22.8,17.9 L4.2,17.5 C3,17.5 1.9,16.6 1.6,15.5 C1.3,14.3 1.8,13.1 2.8,12.5 Z M33.28966,8.07582 L29.51251,9.04653 L29.13916,7.59378 L32.91631,6.62307 L33.28966,8.07582 Z M32.82486,15.07348 L29.46774,13.08877 L30.23109,11.79757 L33.58821,13.78228 L32.82486,15.07348 Z M29.17737,0.79541 L30.46857,1.55876 L28.48386,4.91588 L27.19266,4.15253 L29.17737,0.79541 Z" id="release" fill="#3B3D4A" fill-rule="nonzero"></path>
    </g>
</svg>