<?xml version="1.0" encoding="UTF-8"?>
<svg width="20px" height="22px" viewBox="0 0 20 22" version="1.1" xmlns="http://www.w3.org/2000/svg" xmlns:xlink="http://www.w3.org/1999/xlink">
    <!-- Generator: Sketch 47.1 (45422) - http://www.bohemiancoding.com/sketch -->
    <title>uEA03-filter</title>
    <desc>Created with Sketch.</desc>
    <defs></defs>
    <g id="Page-1" stroke="none" stroke-width="1" fill="none" fill-rule="evenodd">
        <g id="Group" transform="translate(-30.000000, -31.000000)" fill-rule="nonzero" fill="#000000">
            <path d="M37.6693134,44.6431208 L37.6693134,50.5223046 C37.6693134,50.5655306 37.6970871,50.6038635 37.7381623,50.6173289 L41.7191791,51.9223998 C41.7716595,51.9396041 41.8281502,51.9110072 41.8453545,51.8585267 C41.8474689,51.852077 41.8490843,49.4469417 41.8502009,44.6431208 L37.6693134,44.6431208 Z M37.3098405,43.3431208 L42.217312,43.3431208 L48.3386914,33.7267178 C48.4869774,33.4937674 48.4183433,33.1847143 48.1853929,33.0364283 C48.1051548,32.9853523 48.0120127,32.9582223 47.9168974,32.9582223 L31.7685953,32.9582223 C31.492453,32.9582223 31.2685953,33.1820799 31.2685953,33.4582223 C31.2685953,33.5513314 31.2945937,33.6425909 31.343662,33.7217212 L37.3098405,43.3431208 Z M42.8503303,44.210907 L42.8503303,51.8273755 C42.8503303,51.943773 42.831856,52.0594327 42.7955968,52.1700385 C42.6063493,52.7473232 41.9849521,53.0618896 41.4076673,52.8726421 L37.4266505,51.5675712 C36.9748243,51.4194519 36.6693134,50.9977899 36.6693134,50.5223046 L36.6693134,44.2077116 L30.4937953,34.248719 C30.3465905,34.011328 30.2685953,33.7375496 30.2685953,33.4582223 C30.2685953,32.6297952 30.9401682,31.9582223 31.7685953,31.9582223 L47.9168974,31.9582223 C48.2022433,31.9582223 48.4816696,32.0396122 48.7223839,32.1928404 C49.4212351,32.6376983 49.6271373,33.5648577 49.1822794,34.2637088 L42.8503303,44.210907 Z M37.0779864,40.0761129 L37.0779864,38.7761129 L42.4045524,38.7761129 L42.4045524,40.0761129 L37.0779864,40.0761129 Z M37.0779864,37.0761129 L37.0779864,35.7761129 L42.4045524,35.7761129 L42.4045524,37.0761129 L37.0779864,37.0761129 Z" id="uEA03-filter"></path>
        </g>
    </g>
</svg>