<?xml version="1.0" encoding="UTF-8"?>
<svg width="22px" height="22px" viewBox="0 0 22 22" version="1.1" xmlns="http://www.w3.org/2000/svg" xmlns:xlink="http://www.w3.org/1999/xlink">
    <!-- Generator: Sketch 47.1 (45422) - http://www.bohemiancoding.com/sketch -->
    <title>uEA04-search</title>
    <desc>Created with Sketch.</desc>
    <defs></defs>
    <g id="Page-1" stroke="none" stroke-width="1" fill="none" fill-rule="evenodd">
        <g id="Group" fill-rule="nonzero" fill="#000000">
            <path d="M11.729634,12.6959491 C10.4961282,13.7077194 8.91809211,14.3149558 7.19822832,14.3149558 C3.24939236,14.3149558 0.0482283189,11.1137918 0.0482283189,7.16495584 C0.0482283189,3.21611988 3.24939236,0.014955838 7.19822832,0.014955838 C11.1470643,0.014955838 14.3482283,3.21611988 14.3482283,7.16495584 C14.3482283,8.92580013 13.7117089,10.5379773 12.6562107,11.7839469 L21.1230345,20.1627483 L20.2086114,21.0867777 L11.729634,12.6959491 Z M7.19822832,13.0149558 C10.4290941,13.0149558 13.0482283,10.3958216 13.0482283,7.16495584 C13.0482283,3.93409005 10.4290941,1.31495584 7.19822832,1.31495584 C3.96736253,1.31495584 1.34822832,3.93409005 1.34822832,7.16495584 C1.34822832,10.3958216 3.96736253,13.0149558 7.19822832,13.0149558 Z" id="uEA04-search"></path>
        </g>
    </g>
</svg>