<?xml version="1.0" encoding="UTF-8"?>
<svg width="22px" height="22px" viewBox="0 0 22 22" version="1.1" xmlns="http://www.w3.org/2000/svg" xmlns:xlink="http://www.w3.org/1999/xlink">
    <!-- Generator: Sketch 47.1 (45422) - http://www.bohemiancoding.com/sketch -->
    <title>Combined Shape</title>
    <desc>Created with Sketch.</desc>
    <defs></defs>
    <g id="Page-1" stroke="none" stroke-width="1" fill="none" fill-rule="evenodd">
        <path d="M2.68304277,1.78658505 C2.40690042,1.78658505 2.18304282,2.01044266 2.18304282,2.28658501 L2.18304282,15.9967014 C2.18304282,16.2728437 2.40690042,16.4967013 2.68304277,16.4967013 L16.3824052,16.4967013 C16.6585475,16.4967013 16.8824051,16.2728437 16.8824051,15.9967014 L16.8824051,2.28658501 C16.8824051,2.01044266 16.6585475,1.78658505 16.3824052,1.78658505 L2.68304277,1.78658505 Z M2.68304277,0.486585053 L16.3824052,0.486585053 C17.3765177,0.486585053 18.1824051,1.29247248 18.1824051,2.28658501 L18.1824051,15.9967014 C18.1824051,16.9908139 17.3765177,17.7967013 16.3824052,17.7967013 L2.68304277,17.7967013 C1.68893025,17.7967013 0.883042819,16.9908139 0.883042819,15.9967014 L0.883042819,2.28658501 C0.883042819,1.29247248 1.68893025,0.486585053 2.68304277,0.486585053 Z M4.09978724,21.5978872 L4.09978724,20.2978872 L20.1281161,20.2978872 C20.3214158,20.2978872 20.4781161,20.1411868 20.4781161,19.9478872 L20.4781161,3.92725059 L21.7781161,3.92725059 L21.7781161,19.9478872 C21.7781161,20.859157 21.039386,21.5978872 20.1281161,21.5978872 L4.09978724,21.5978872 Z M4.80381004,7.48541899 L14.8079451,7.48541899 L14.8079451,6.18541899 L4.80381004,6.18541899 L4.80381004,7.48541899 Z M4.7988759,11.485419 L11.7974979,11.485419 L11.7974979,10.185419 L4.7988759,10.185419 L4.7988759,11.485419 Z" id="Combined-Shape" fill="#000000" fill-rule="nonzero"></path>
    </g>
</svg>