<?xml version="1.0" encoding="UTF-8"?>
<svg width="27px" height="27px" viewBox="0 0 27 27" version="1.1" xmlns="http://www.w3.org/2000/svg" xmlns:xlink="http://www.w3.org/1999/xlink">
    <!-- Generator: Sketch 47.1 (45422) - http://www.bohemiancoding.com/sketch -->
    <title>uEA01-user</title>
    <desc>Created with Sketch.</desc>
    <defs></defs>
    <g id="Page-1" stroke="none" stroke-width="1" fill="none" fill-rule="evenodd">
        <g id="uEA01-user" transform="translate(-31.000000, -1.000000)" fill="#000000" fill-rule="nonzero">
            <path d="M44.3999996,1 C51.7999994,1 57.7999992,7 57.7999992,14.4 C57.7999992,21.8 51.7999994,27.8 44.3999996,27.8 C36.9999998,27.8 31,21.8 31,14.4 C31,7 36.9999998,1 44.3999996,1 Z M53.4999994,22.4 C55.2999993,20.3 56.4999993,17.5 56.5999993,14.4 C56.5999993,7.7 51.1999994,2.3 44.4999996,2.3 C37.7999998,2.3 32.4,7.7 32.4,14.4 C32.4,17.5 33.4999999,20.3 35.3999999,22.4 C35.7999999,19.3 38.3999998,17 41.5999997,17 L47.2999995,17 C50.4999994,17 53.0999994,19.4 53.4999994,22.4 Z M44.3999996,14.9 C42.0804037,14.9 40.1999997,13.0195959 40.1999997,10.7 C40.1999997,8.38040405 42.0804037,6.5 44.3999996,6.5 C46.7195955,6.5 48.5999995,8.38040405 48.5999995,10.7 C48.5999995,13.0195959 46.7195955,14.9 44.3999996,14.9 Z"></path>
        </g>
    </g>
</svg>